<?xml version="1.0" encoding="utf-8"?><!-- Generator: Adobe Illustrator 25.2.1, SVG Export Plug-In . SVG Version: 6.00 Build 0)  --><svg fill="#1C2033" width="52" height="52" version="1.1" id="lni_lni-shopping-cart-11" xmlns="http://www.w3.org/2000/svg" xmlns:xlink="http://www.w3.org/1999/xlink"	 x="0px" y="0px" viewBox="0 0 64 64" style="enable-background:new 0 0 64 64;" xml:space="preserve"><path d="M58.1,3.2c-0.4-1.2-1.7-1.8-2.9-1.3l-7.3,2.7c-0.9,0.3-1.5,1.2-1.5,2.1v11H12.6c-3.7,0-6.8,3-6.8,6.8v10.9	c0,3.5,2.8,6.5,6.3,6.8l34.3,2.6v0.7c0,1.7-1.4,3.1-3.1,3.1H15.1c-3.8,0-6.9,3.1-6.9,6.9s3.1,6.9,6.9,6.9s6.9-3.1,6.9-6.9	c0-0.8-0.2-1.7-0.4-2.4h10c-0.3,0.8-0.4,1.6-0.4,2.4c0,3.8,3.1,6.9,6.9,6.9s6.9-3.1,6.9-6.9c0-0.9-0.2-1.7-0.5-2.5	c3.6-0.6,6.4-3.7,6.4-7.5l0-37.1l5.9-2.1C57.9,5.7,58.5,4.4,58.1,3.2z M46.4,40.2l-34-2.5c-1.2-0.1-2.1-1.1-2.1-2.3V24.4	c0-1.3,1-2.3,2.3-2.3h33.8V40.2z M17.5,55.3c0,1.3-1.1,2.4-2.4,2.4s-2.4-1.1-2.4-2.4s1.1-2.4,2.4-2.4S17.5,54,17.5,55.3z M38,57.8	c-1.3,0-2.4-1.1-2.4-2.4s1.1-2.4,2.4-2.4s2.4,1.1,2.4,2.4S39.4,57.8,38,57.8z"/></svg>